<svg id="Layer_1" data-name="Layer 1" xmlns="https://www.w3.org/2000/svg" width="1012" height="128" viewBox="0 0 1012 128">
  <title>XodusDNQ</title>
  <g>
    <path d="M269.22468,8.02877,228.04851,62.77246l42.77431,56.98027h-15.005L220.06614,71.5539l-35.75167,48.19883h-14.521L212.5636,62.77246,171.38747,8.02877h14.84229L220.38744,53.9952,254.541,8.02877Z"/>
    <path d="M274.78687,78.89368v-.31713a43.01461,43.01461,0,0,1,86.02847-.3213v.3213A42.84518,42.84518,0,0,1,318.219,121.66918q-.32683.00191-.65369-.0012C292.82542,121.668,274.78687,102.19819,274.78687,78.89368Zm73.42276,0v-.31713c0-17.71936-13.24829-32.24244-30.64426-32.24244-17.87582,0-30.16857,14.52308-30.16857,31.92113v.3213c0,17.71727,13.08975,32.07969,30.48571,32.07969C335.75831,110.65625,348.20963,96.29382,348.20963,78.89368Z"/>
    <path d="M366.22315,78.73511V78.418c0-26.97649,19.63254-42.93705,39.42362-42.93705,15.32214,0,25.2156,8.29949,31.59982,17.55662V3.2406h12.29275V119.75273H437.24662v-16.599c-6.70136,9.89763-16.44043,18.35569-31.59982,18.35569C385.85569,121.50943,366.22315,105.87016,366.22315,78.73511Zm71.50333-.15856v-.3213c0-18.992-14.52515-31.76048-29.84729-31.76048-15.96057,0-29.04615,11.80873-29.04615,31.76048v.3213c0,19.46981,13.40686,31.92112,29.04615,31.92112C423.2013,110.49768,437.72648,97.57067,437.72648,78.57655Z"/>
    <path d="M463.72654,88.47V37.23556h12.2886V85.44064c0,15.32215,8.2995,24.89849,22.82047,24.89849,14.04529,0,24.73993-10.37751,24.73993-25.8582V37.23556h12.13v82.51717h-12.13V105.3903c-5.58722,8.93792-14.04529,16.11913-28.24915,16.11913C475.37668,121.50943,463.72654,108.10256,463.72654,88.47Z"/>
    <path d="M544.46812,109.22084l6.22564-8.77936c8.93793,6.70553,18.83136,10.53606,28.56629,10.53606,9.89764,0,17.07885-5.10738,17.07885-13.08975v-.31713c0-8.2995-9.73492-11.4916-20.58807-14.52516-12.93115-3.672-27.29358-8.14093-27.29358-23.30451v-.31921c0-14.20386,11.80872-23.62164,28.09058-23.62164a56.40716,56.40716,0,0,1,29.68457,9.09648l-5.58307,9.25921c-7.66107-4.94881-16.44043-7.98237-24.41864-7.98237-9.73908,0-15.96472,5.10739-15.96472,11.97147v.31921c0,7.82172,10.21478,10.85319,21.23065,14.208,12.76849,3.83058,26.49249,8.77523,26.49249,23.62168V96.611c0,15.64344-12.927,24.73992-29.36743,24.73992A56.74012,56.74012,0,0,1,544.46812,109.22084Z"/>
  </g>
  <g>
    <path d="M268.87762,8.15272,227.80128,62.76579l42.67061,56.84214H255.50325l-35.665-48.08615-35.665,48.08615H169.68749l42.66645-56.84214L171.27759,8.15272h14.8063l34.07489,45.855,34.07072-45.855Z"/>
    <path d="M274.42634,78.84793v-.32052a42.91033,42.91033,0,0,1,85.81993-.31636v.31636a42.74224,42.74224,0,0,1-43.14515,42.99115C292.42118,121.51856,274.42634,102.09179,274.42634,78.84793Zm73.24477,0v-.32052c0-17.67224-13.21619-32.16219-30.57-32.16219-17.8325,0-30.09546,14.49-30.09546,31.84583v.31636c0,17.67432,13.058,32.00609,30.41182,32.00609C335.25,110.5335,347.67111,96.20173,347.67111,78.84793Z"/>
    <path d="M365.641,78.68975v-.32052c0-26.909,19.58495-42.83089,39.32807-42.83089,15.285,0,25.15447,8.27938,31.52322,17.51407V3.37615h12.263V119.60793h-12.263V103.04918c-6.6851,9.86948-16.40057,18.3112-31.52322,18.3112C385.22592,121.36038,365.641,105.75486,365.641,78.68975Zm71.33-.16234v-.31636c0-18.95015-14.48994-31.68765-29.77494-31.68765-15.92187,0-28.97573,11.78427-28.97573,31.68765v.31636c0,19.42677,13.37438,31.84375,28.97573,31.84375C422.481,110.37116,436.971,97.47548,436.971,78.52741Z"/>
    <path d="M462.908,88.40105V37.29079h12.2588V85.37486c0,15.285,8.27937,24.83812,22.76515,24.83812,14.01125,0,24.68-10.34818,24.68-25.79136V37.29079h12.10062v82.31714H522.6119V105.27616c-5.5737,8.91625-14.01125,16.08422-28.18068,16.08422C474.52993,121.36038,462.908,107.986,462.908,88.40105Z"/>
    <path d="M543.45394,109.09741l6.21057-8.75391c8.91625,6.68511,18.78573,10.50636,28.497,10.50636,9.87364,0,17.03744-5.095,17.03744-13.05386v-.32052c0-8.27937-9.7113-11.46375-20.53817-14.49-12.89984-3.65891-27.22745-8.117-27.22745-23.24594v-.31843c0-14.17151,11.78011-23.56438,28.0225-23.56438a56.25413,56.25413,0,0,1,29.6126,9.07651l-5.56953,9.23261c-7.6425-4.93474-16.40057-7.95886-24.35943-7.95886-9.71546,0-15.926,5.095-15.926,11.94037v.31843c0,7.80068,10.19,10.82688,21.17921,14.16943,12.7375,3.82334,26.42822,8.76016,26.42822,23.56646v.32052c0,15.60136-12.89567,24.67579-29.29624,24.67579A56.60272,56.60272,0,0,1,543.45394,109.09741Z"/>
    <path d="M614.28441,65.31329H658.5493V78.21105H614.28441Z"/>
    <path d="M672.7104,8.15272h38.687c35.03228,0,59.23353,24.04307,59.23353,55.40813v.31843c0,31.36922-24.20125,55.72865-59.23353,55.72865h-38.687Zm12.57931,11.62193V107.986h26.10771c28.18484,0,46.17551-19.10625,46.17551-43.78828v-.31844c0-24.67786-17.99067-44.10463-46.17551-44.10463Z"/>
    <path d="M785.25409,8.15272H797.0342l70.21857,89.32276V8.15272h12.2588V119.60793H869.47975L797.51289,28.21428v91.39365h-12.2588Z"/>
    <path d="M1000.651,122.95048l-14.8063-13.21619a56.25857,56.25857,0,0,1-35.02812,11.78427c-33.91255,0-56.68186-26.59058-56.68186-57.32084v-.31844c0-30.73026,23.08567-57.63719,57.00238-57.63719,33.91254,0,56.6777,26.59058,56.6777,57.31876v.31843a59.38883,59.38883,0,0,1-13.212,37.25927l14.64812,12.417Zm-23.72255-21.33323-20.85869-17.8325,8.43755-9.397L985.366,93.33788a47.60907,47.60907,0,0,0,9.39494-29.14016v-.31844c0-25.31474-18.46937-46.01526-43.94436-46.01526s-43.628,20.38-43.628,45.69683v.31843c0,25.31683,18.47353,46.01735,43.94853,46.01735A42.67963,42.67963,0,0,0,976.92845,101.61725Z"/>
  </g>
  <polygon points="120.428 36 120.428 8 92.428 8 36.428 8 8.428 8 8.428 36 36.428 36 36.428 50 8.428 50 8.428 78 36.428 78 36.428 78 36.428 92 8.428 92 8.428 120 36.428 120 36.428 120 92.428 120 92.428 120 120.428 120 120.428 92 92.428 92 92.428 78 120.428 78 120.428 50 92.428 50 92.428 36 120.428 36"/>
</svg>
